<?xml version="1.0" encoding="UTF-8"?>
<svg id="Capa_2" data-name="Capa 2" xmlns="http://www.w3.org/2000/svg" viewBox="0 0 325.41 202.34">
  <defs>
    <style>
      .cls-1 {
        fill: #6a2827;
      }
    </style>
  </defs>
  <g id="Capa_1-2" data-name="Capa 1">
    <g>
      <path class="cls-1" d="M127.74,83.93V0h28.26v198.39h-28.26v-110.22H28.26v110.22H0V0h28.26v83.93h99.48Z"/>
      <path class="cls-1" d="M214.34,191.18c-13.38-7.44-24.02-17.94-31.93-31.51-7.91-13.56-11.87-29.11-11.87-46.63s4-32.26,12.01-44.79c8.01-12.53,18.41-21.99,31.23-28.4,12.81-6.4,26.28-9.61,40.41-9.61,12.62,0,24.35,2.59,35.18,7.77,10.83,5.18,19.54,12.86,26.14,23.03,6.59,10.17,9.89,22.61,9.89,37.3,0,6.03-.85,12.62-2.54,19.78h-124.06c.38,16.21,3.06,30.38,8.05,42.53,4.99,12.15,11.73,21.53,20.21,28.12,8.48,6.6,17.99,9.89,28.54,9.89,9.98,0,20.44-3.39,31.37-10.17,10.92-6.78,21.66-16.96,32.22-30.52l5.93,19.78c-10.55,8.29-21.53,14.46-32.92,18.51-11.4,4.05-22.75,6.08-34.05,6.08-15.83,0-30.43-3.72-43.8-11.16ZM298.28,114.17c1.13-6.22,1.69-12.15,1.69-17.8,0-13.38-2.08-24.73-6.22-34.05-4.15-9.33-9.71-16.34-16.67-21.05-6.97-4.71-14.51-7.07-22.61-7.07-9.23,0-18.09,3.11-26.56,9.33-8.48,6.22-15.45,15.36-20.91,27.41-5.47,12.06-8.2,26.47-8.2,43.24h99.48Z"/>
      <path class="cls-1" d="M227.06,9c-3.31-2.57-6.34-5.58-9.12-9h-19.38c4.76,4.36,10,8.19,15.78,11.4,12.57,6.99,26.23,10.7,40.97,11.12v-3.64c-10.44-.06-19.85-3.35-28.26-9.89Z"/>
      <path class="cls-1" d="M283.57,9C286.88,6.43,289.91,3.42,292.69,0h19.38c-4.76,4.36-10,8.19-15.78,11.4-12.57,6.99-26.23,10.7-40.97,11.12v-3.64c10.44-.06,19.85-3.35,28.26-9.89Z"/>
    </g>
  </g>
</svg>
